<svg width="116" height="130" viewBox="0 0 116 130" fill="none" xmlns="http://www.w3.org/2000/svg">
<path d="M15.6647 15.611L31.2756 31.2219H44.9512C60.0509 31.2219 59.6492 31.1854 62.0228 32.4087C65.6562 34.2528 68.0298 37.8132 68.3585 41.8848C68.5958 44.8244 67.2995 48.0927 64.9807 50.4115C63.4835 51.8905 62.2784 52.6756 60.3978 53.3511L59.211 53.7711L29.6324 53.8624L0.0719694 53.9537L35.4751 91.9677L70.8964 129.982H93.0621L115.21 130L114.516 129.215C114.132 128.795 104.236 118.187 92.5326 105.625C80.829 93.0815 71.2798 82.7837 71.2981 82.7472C71.3163 82.6924 72.1015 82.3638 73.0326 81.9803C80.902 78.8216 87.7124 73.2346 92.5144 65.986C96.0383 60.691 98.284 54.8301 99.2335 48.4579C99.6717 45.4635 99.6717 39.4199 99.2152 36.5169C97.7363 26.8399 93.2995 18.2584 86.3613 11.6671C80.2812 5.89748 72.9413 2.1545 64.4147 0.51124L62.3149 0.109555L31.1843 0.0547797L0.0537109 4.47035e-06L15.6647 15.611Z" fill="#BA2F2A"/>
<path d="M8.37964 107.834C2.84733 109.313 -0.73132 114.736 0.126826 120.305C0.802388 124.669 3.44986 127.882 7.59452 129.397C9.23778 130.018 12.1044 130.164 13.9119 129.744C19.7729 128.357 23.5889 122.368 22.3473 116.489C21.4709 112.308 18.2574 108.875 14.2041 107.816C12.9077 107.469 9.67598 107.487 8.37964 107.834Z" fill="#BA2F2A"/>
</svg>
