<?xml version="1.0" standalone="no"?>
<!DOCTYPE svg PUBLIC "-//W3C//DTD SVG 20010904//EN"
 "http://www.w3.org/TR/2001/REC-SVG-20010904/DTD/svg10.dtd">
<svg version="1.0" xmlns="http://www.w3.org/2000/svg"
 width="632.000000pt" height="714.000000pt" viewBox="0 0 632.000000 714.000000"
 preserveAspectRatio="xMidYMid meet">
<metadata>
Created by potrace 1.16, written by Peter Selinger 2001-2019
</metadata>
<g transform="translate(0.000000,714.000000) scale(0.100000,-0.100000)"
fill="#000000" stroke="none">
<path d="M0 7132 c0 -4 384 -391 853 -859 l852 -852 760 -3 760 -3 70 -23
c195 -65 357 -225 416 -412 29 -91 35 -217 15 -305 -53 -226 -236 -413 -461
-470 -52 -13 -263 -15 -1663 -15 -1405 0 -1603 -2 -1599 -15 4 -8 878 -950
1944 -2094 l1938 -2080 1218 0 c669 -1 1217 2 1217 7 0 4 -541 588 -1203 1297
l-1203 1290 81 33 c377 152 715 408 977 737 186 235 347 562 423 864 151 599
60 1230 -253 1758 -373 629 -1011 1048 -1732 1138 -108 13 -347 15 -1767 15
-904 0 -1643 -3 -1643 -8z"/>
<path d="M468 1235 c-132 -33 -266 -122 -345 -228 -96 -130 -127 -235 -121
-412 4 -102 9 -130 33 -190 74 -183 201 -306 387 -373 63 -22 89 -26 193 -27
97 0 133 4 190 22 262 83 436 316 438 588 1 120 -13 184 -63 290 -68 142 -198
258 -350 312 -93 33 -269 42 -362 18z"/>
</g>
</svg>
