<?xml version="1.0" standalone="no"?>
<!DOCTYPE svg PUBLIC "-//W3C//DTD SVG 20010904//EN"
 "http://www.w3.org/TR/2001/REC-SVG-20010904/DTD/svg10.dtd">
<svg version="1.0" xmlns="http://www.w3.org/2000/svg"
 width="1000.000000pt" height="1130.000000pt" viewBox="0 0 1000.000000 1130.000000"
 preserveAspectRatio="xMidYMid meet">
<metadata>
Created by potrace 1.16, written by Peter Selinger 2001-2019
</metadata>
<g transform="translate(0.000000,1130.000000) scale(0.100000,-0.100000)"
fill="#000000" stroke="none">
<path d="M2700 8355 l855 -855 749 0 c827 0 805 2 935 -65 199 -101 329 -296
347 -519 13 -161 -58 -340 -185 -467 -82 -81 -148 -124 -251 -161 l-65 -23
-1620 -5 -1619 -5 1939 -2082 1940 -2082 1214 0 1213 -1 -38 43 c-21 23 -563
604 -1204 1292 -641 687 -1164 1251 -1163 1253 1 3 44 21 95 42 431 173 804
479 1067 876 193 290 316 611 368 960 24 164 24 495 -1 654 -81 530 -324 1000
-704 1361 -333 316 -735 521 -1202 611 l-115 22 -1705 3 -1705 3 855 -855z"/>
<path d="M2301 3304 c-303 -81 -499 -378 -452 -683 37 -239 182 -415 409 -498
90 -34 247 -42 346 -19 321 76 530 404 462 726 -48 229 -224 417 -446 475 -71
19 -248 18 -319 -1z"/>
</g>
</svg>
