<svg width="153" height="137" viewBox="0 0 153 137" fill="none" xmlns="http://www.w3.org/2000/svg">
<circle cx="63" cy="74" r="63" fill="white"/>
<path d="M77.1103 36.4192C76.2082 35.9807 75.3062 36.4192 75.0844 37.3073C74.8589 37.5302 74.8589 37.7531 74.8589 38.1953V41.3017L74.8958 41.6818C75.0888 42.4336 75.5563 43.0884 76.2082 43.52C93.7834 49.7327 102.797 69.0287 96.2604 86.1064C92.8814 95.4255 85.4469 102.519 76.2082 105.848C75.3062 106.29 74.8589 106.956 74.8589 108.067V111.173L74.8773 111.495C74.9125 111.845 75.0608 112.176 75.3005 112.437C75.5401 112.698 75.8584 112.877 76.2082 112.945C76.4337 112.945 76.8848 112.945 77.1103 112.726C82.1809 111.161 86.8882 108.619 90.9611 105.248C95.034 101.877 98.3922 97.7429 100.842 93.0836C103.292 88.4242 104.786 83.3318 105.236 78.0996C105.687 72.8673 105.087 67.5986 103.469 62.5967C99.4175 49.952 89.5024 40.4136 77.1103 36.4229V36.4192ZM53.2281 36.2C53.0026 36.2 52.5516 36.2 52.3261 36.4192C47.2555 37.9846 42.5482 40.5259 38.4753 43.8971C34.4023 47.2682 31.0442 51.4024 28.5942 56.0618C26.1442 60.7211 24.6508 65.8135 24.1999 71.0458C23.749 76.278 24.3496 81.5468 25.967 86.5486C30.0188 98.9741 39.7085 108.512 52.3261 112.503C53.2281 112.945 54.1302 112.503 54.352 111.615C54.5775 111.396 54.5775 111.169 54.5775 110.727V107.621L54.5405 107.328C54.3853 106.711 53.8049 106.005 53.2281 105.625C35.653 99.4126 26.6398 80.1166 33.176 63.0389C36.555 53.7198 43.9895 46.6264 53.2281 43.2971C54.1302 42.8549 54.5775 42.1898 54.5775 41.0788V37.9724L54.559 37.6508C54.5239 37.2999 54.3755 36.9694 54.1359 36.7082C53.8963 36.4469 53.578 36.2688 53.2281 36.2ZM66.2968 47.7337H62.9141L62.5888 47.7629C61.8494 47.9091 61.3096 48.5377 61.11 49.5098V54.6116L60.3447 54.7285C54.0304 55.8395 50.0747 60.1482 50.0747 65.4802C50.0747 72.7966 54.5775 75.68 64.0417 76.791C70.3523 77.8983 72.3782 79.2322 72.3782 82.7808C72.3782 86.3257 69.2247 88.7669 64.9437 88.7669C59.0841 88.7669 57.0582 86.3293 56.3816 83.0001C56.1598 82.1157 55.4796 81.6698 54.803 81.6698H50.973L50.681 81.6954C50.3164 81.7536 49.9856 81.9405 49.7497 82.2213C49.5138 82.5022 49.3889 82.8581 49.3981 83.223V83.4423L49.5201 84.1001C50.5922 89.3042 54.2004 93.0281 61.3392 94.0916V99.4163L61.3688 99.7379C61.5166 100.461 62.1562 100.995 63.1433 101.189H66.5223L66.8476 101.159C67.587 101.013 68.1268 100.385 68.3264 99.4163V94.088L69.0917 93.9418C75.4245 92.6188 79.5909 88.0908 79.5909 82.3313C79.5909 74.569 74.8589 71.9085 65.3947 70.7975C58.633 69.9095 57.2837 68.137 57.2837 65.0307C57.2837 61.9243 59.5388 59.9289 64.0417 59.9289C68.0972 59.9289 70.3523 61.2592 71.4762 64.5885C71.5933 64.9104 71.8074 65.1891 72.0896 65.3871C72.3719 65.5851 72.7087 65.6928 73.0548 65.6958H76.6593L76.9513 65.6739C77.3172 65.6164 77.6494 65.4293 77.8861 65.1476C78.1228 64.8659 78.2478 64.5087 78.2378 64.1426V63.9233L78.1011 63.2911C77.546 61.0195 76.2804 58.9787 74.4844 57.4592C72.6883 55.9396 70.4533 55.0186 68.0972 54.8272V49.5098L68.0676 49.1882C67.9197 48.461 67.2802 47.9274 66.2931 47.7337H66.2968Z" fill="#2775CA"/>
<g filter="url(#filter0_dddddd_106_26)">
<circle cx="109" cy="25" r="25" fill="#BA2F2A"/>
<path d="M101.547 14.9712L104.98 18.4039H107.987C111.307 18.4039 111.219 18.3959 111.741 18.6649C112.54 19.0704 113.062 19.8533 113.134 20.7486C113.186 21.395 112.901 22.1137 112.391 22.6236C112.062 22.9488 111.797 23.1214 111.384 23.27L111.123 23.3623L104.619 23.3824L98.1185 23.4025L105.903 31.7615L113.692 40.1205H118.566L123.436 40.1245L123.284 39.9519C123.2 39.8595 121.023 37.5269 118.45 34.7646C115.876 32.0064 113.777 29.742 113.781 29.734C113.785 29.7219 113.957 29.6497 114.162 29.5653C115.892 28.8708 117.39 27.6422 118.446 26.0483C119.221 24.884 119.715 23.5952 119.923 22.194C120.02 21.5355 120.02 20.2066 119.919 19.5683C119.594 17.4404 118.619 15.5534 117.093 14.104C115.756 12.8353 114.142 12.0122 112.267 11.6509L111.805 11.5625L104.96 11.5505L98.1145 11.5385L101.547 14.9712Z" fill="white"/>
<path d="M99.9452 35.2505C98.7287 35.5757 97.9418 36.7681 98.1305 37.9927C98.279 38.9523 98.8612 39.6589 99.7726 39.9921C100.134 40.1286 100.764 40.1607 101.162 40.0684C102.45 39.7633 103.29 38.4464 103.017 37.1536C102.824 36.2342 102.117 35.4794 101.226 35.2465C100.941 35.1702 100.23 35.1742 99.9452 35.2505Z" fill="white"/>
</g>
<defs>
<filter id="filter0_dddddd_106_26" x="65" y="0" width="88" height="88" filterUnits="userSpaceOnUse" color-interpolation-filters="sRGB">
<feFlood flood-opacity="0" result="BackgroundImageFix"/>
<feColorMatrix in="SourceAlpha" type="matrix" values="0 0 0 0 0 0 0 0 0 0 0 0 0 0 0 0 0 0 127 0" result="hardAlpha"/>
<feOffset dy="0.525779"/>
<feGaussianBlur stdDeviation="0.262889"/>
<feColorMatrix type="matrix" values="0 0 0 0 0 0 0 0 0 0 0 0 0 0 0 0 0 0 0.0196802 0"/>
<feBlend mode="normal" in2="BackgroundImageFix" result="effect1_dropShadow_106_26"/>
<feColorMatrix in="SourceAlpha" type="matrix" values="0 0 0 0 0 0 0 0 0 0 0 0 0 0 0 0 0 0 127 0" result="hardAlpha"/>
<feOffset dy="1.26352"/>
<feGaussianBlur stdDeviation="0.63176"/>
<feColorMatrix type="matrix" values="0 0 0 0 0 0 0 0 0 0 0 0 0 0 0 0 0 0 0.0282725 0"/>
<feBlend mode="normal" in2="effect1_dropShadow_106_26" result="effect2_dropShadow_106_26"/>
<feColorMatrix in="SourceAlpha" type="matrix" values="0 0 0 0 0 0 0 0 0 0 0 0 0 0 0 0 0 0 127 0" result="hardAlpha"/>
<feOffset dy="2.37909"/>
<feGaussianBlur stdDeviation="1.18955"/>
<feColorMatrix type="matrix" values="0 0 0 0 0 0 0 0 0 0 0 0 0 0 0 0 0 0 0.035 0"/>
<feBlend mode="normal" in2="effect2_dropShadow_106_26" result="effect3_dropShadow_106_26"/>
<feColorMatrix in="SourceAlpha" type="matrix" values="0 0 0 0 0 0 0 0 0 0 0 0 0 0 0 0 0 0 127 0" result="hardAlpha"/>
<feOffset dy="4.2439"/>
<feGaussianBlur stdDeviation="2.12195"/>
<feColorMatrix type="matrix" values="0 0 0 0 0 0 0 0 0 0 0 0 0 0 0 0 0 0 0.0417275 0"/>
<feBlend mode="normal" in2="effect3_dropShadow_106_26" result="effect4_dropShadow_106_26"/>
<feColorMatrix in="SourceAlpha" type="matrix" values="0 0 0 0 0 0 0 0 0 0 0 0 0 0 0 0 0 0 127 0" result="hardAlpha"/>
<feOffset dy="7.93775"/>
<feGaussianBlur stdDeviation="3.96887"/>
<feColorMatrix type="matrix" values="0 0 0 0 0 0 0 0 0 0 0 0 0 0 0 0 0 0 0.0503198 0"/>
<feBlend mode="normal" in2="effect4_dropShadow_106_26" result="effect5_dropShadow_106_26"/>
<feColorMatrix in="SourceAlpha" type="matrix" values="0 0 0 0 0 0 0 0 0 0 0 0 0 0 0 0 0 0 127 0" result="hardAlpha"/>
<feOffset dy="19"/>
<feGaussianBlur stdDeviation="9.5"/>
<feColorMatrix type="matrix" values="0 0 0 0 0 0 0 0 0 0 0 0 0 0 0 0 0 0 0.07 0"/>
<feBlend mode="normal" in2="effect5_dropShadow_106_26" result="effect6_dropShadow_106_26"/>
<feBlend mode="normal" in="SourceGraphic" in2="effect6_dropShadow_106_26" result="shape"/>
</filter>
</defs>
</svg>
