<svg width="153" height="137" viewBox="0 0 153 137" fill="none" xmlns="http://www.w3.org/2000/svg">
<circle cx="63" cy="74" r="63" fill="white"/>
<path fill-rule="evenodd" clip-rule="evenodd" d="M98.3261 63.1915C99.7819 53.4431 92.378 48.2015 82.2621 44.704L85.5444 31.4953L77.5332 29.4954L74.3343 42.3552C72.2295 41.825 70.0691 41.332 67.9133 40.839L71.1354 27.8954L63.1243 25.8909L59.8419 39.0949C58.0987 38.6949 56.3834 38.3043 54.7237 37.8857L54.7329 37.8438L43.6805 35.0765L41.5479 43.6622C41.5479 43.6622 47.496 45.0295 47.3708 45.1132C50.6161 45.9272 51.2002 48.0806 51.1029 49.7921L47.3662 64.8379C47.5887 64.8937 47.8761 64.9775 48.2007 65.103L47.3523 64.8937L42.1135 85.9718C41.7148 86.9578 40.7087 88.4415 38.4371 87.8787C38.5205 87.995 32.6141 86.423 32.6141 86.423L28.6364 95.6226L39.0676 98.2318C41.0055 98.7201 42.9062 99.2317 44.7746 99.7108L41.4598 113.068L49.4663 115.068L52.7487 101.859C54.9369 102.45 57.0602 102.999 59.1372 103.52L55.8641 116.673L63.8753 118.673L67.1901 105.343C80.8573 107.938 91.1309 106.892 95.4564 94.4924C98.9427 84.5115 95.2849 78.7489 88.0943 74.9956C93.3331 73.7864 97.2737 70.3307 98.3261 63.1915ZM80.0136 88.9485C77.5425 98.9341 60.783 93.5343 55.3495 92.1809L59.7538 74.484C65.1873 75.8467 82.6051 78.5396 80.0136 88.9485ZM82.4939 63.0473C80.2361 72.1306 66.2907 67.5122 61.7705 66.382L65.7576 50.3363C70.2778 51.4664 84.849 53.5733 82.4939 63.0473Z" fill="#DC9A17"/>
<g filter="url(#filter0_dddddd_101_236)">
<circle cx="109" cy="25" r="25" fill="#BA2F2A"/>
<path d="M101.547 14.9712L104.98 18.4039H107.987C111.307 18.4039 111.219 18.3959 111.741 18.6649C112.54 19.0704 113.062 19.8533 113.134 20.7486C113.186 21.395 112.901 22.1137 112.391 22.6236C112.062 22.9488 111.797 23.1214 111.384 23.27L111.123 23.3623L104.619 23.3824L98.1185 23.4025L105.903 31.7615L113.692 40.1205H118.566L123.436 40.1245L123.284 39.9519C123.2 39.8595 121.023 37.5269 118.45 34.7646C115.876 32.0064 113.777 29.742 113.781 29.734C113.785 29.7219 113.957 29.6497 114.162 29.5653C115.892 28.8708 117.39 27.6422 118.446 26.0483C119.221 24.884 119.715 23.5952 119.923 22.194C120.02 21.5355 120.02 20.2066 119.919 19.5683C119.594 17.4404 118.619 15.5534 117.093 14.104C115.756 12.8353 114.142 12.0122 112.267 11.6509L111.805 11.5625L104.96 11.5505L98.1144 11.5385L101.547 14.9712Z" fill="white"/>
<path d="M99.9452 35.2505C98.7286 35.5757 97.9417 36.7681 98.1304 37.9927C98.279 38.9523 98.8611 39.6589 99.7725 39.9921C100.134 40.1286 100.764 40.1607 101.162 40.0684C102.45 39.7633 103.29 38.4464 103.017 37.1536C102.824 36.2342 102.117 35.4794 101.226 35.2465C100.941 35.1702 100.23 35.1742 99.9452 35.2505Z" fill="white"/>
</g>
<defs>
<filter id="filter0_dddddd_101_236" x="65" y="0" width="88" height="88" filterUnits="userSpaceOnUse" color-interpolation-filters="sRGB">
<feFlood flood-opacity="0" result="BackgroundImageFix"/>
<feColorMatrix in="SourceAlpha" type="matrix" values="0 0 0 0 0 0 0 0 0 0 0 0 0 0 0 0 0 0 127 0" result="hardAlpha"/>
<feOffset dy="0.525779"/>
<feGaussianBlur stdDeviation="0.262889"/>
<feColorMatrix type="matrix" values="0 0 0 0 0 0 0 0 0 0 0 0 0 0 0 0 0 0 0.0196802 0"/>
<feBlend mode="normal" in2="BackgroundImageFix" result="effect1_dropShadow_101_236"/>
<feColorMatrix in="SourceAlpha" type="matrix" values="0 0 0 0 0 0 0 0 0 0 0 0 0 0 0 0 0 0 127 0" result="hardAlpha"/>
<feOffset dy="1.26352"/>
<feGaussianBlur stdDeviation="0.63176"/>
<feColorMatrix type="matrix" values="0 0 0 0 0 0 0 0 0 0 0 0 0 0 0 0 0 0 0.0282725 0"/>
<feBlend mode="normal" in2="effect1_dropShadow_101_236" result="effect2_dropShadow_101_236"/>
<feColorMatrix in="SourceAlpha" type="matrix" values="0 0 0 0 0 0 0 0 0 0 0 0 0 0 0 0 0 0 127 0" result="hardAlpha"/>
<feOffset dy="2.37909"/>
<feGaussianBlur stdDeviation="1.18955"/>
<feColorMatrix type="matrix" values="0 0 0 0 0 0 0 0 0 0 0 0 0 0 0 0 0 0 0.035 0"/>
<feBlend mode="normal" in2="effect2_dropShadow_101_236" result="effect3_dropShadow_101_236"/>
<feColorMatrix in="SourceAlpha" type="matrix" values="0 0 0 0 0 0 0 0 0 0 0 0 0 0 0 0 0 0 127 0" result="hardAlpha"/>
<feOffset dy="4.2439"/>
<feGaussianBlur stdDeviation="2.12195"/>
<feColorMatrix type="matrix" values="0 0 0 0 0 0 0 0 0 0 0 0 0 0 0 0 0 0 0.0417275 0"/>
<feBlend mode="normal" in2="effect3_dropShadow_101_236" result="effect4_dropShadow_101_236"/>
<feColorMatrix in="SourceAlpha" type="matrix" values="0 0 0 0 0 0 0 0 0 0 0 0 0 0 0 0 0 0 127 0" result="hardAlpha"/>
<feOffset dy="7.93775"/>
<feGaussianBlur stdDeviation="3.96887"/>
<feColorMatrix type="matrix" values="0 0 0 0 0 0 0 0 0 0 0 0 0 0 0 0 0 0 0.0503198 0"/>
<feBlend mode="normal" in2="effect4_dropShadow_101_236" result="effect5_dropShadow_101_236"/>
<feColorMatrix in="SourceAlpha" type="matrix" values="0 0 0 0 0 0 0 0 0 0 0 0 0 0 0 0 0 0 127 0" result="hardAlpha"/>
<feOffset dy="19"/>
<feGaussianBlur stdDeviation="9.5"/>
<feColorMatrix type="matrix" values="0 0 0 0 0 0 0 0 0 0 0 0 0 0 0 0 0 0 0.07 0"/>
<feBlend mode="normal" in2="effect5_dropShadow_101_236" result="effect6_dropShadow_101_236"/>
<feBlend mode="normal" in="SourceGraphic" in2="effect6_dropShadow_101_236" result="shape"/>
</filter>
</defs>
</svg>
