<svg width="153" height="137" viewBox="0 0 153 137" fill="none" xmlns="http://www.w3.org/2000/svg">
<g clip-path="url(#clip0_505_20)">
<path d="M63.2253 137C98.1437 137 126.451 110.001 126.451 76.6952C126.451 43.3898 98.1437 16.3904 63.2253 16.3904C28.307 16.3904 0 43.3898 0 76.6952C0 110.001 28.307 137 63.2253 137Z" fill="white"/>
<path d="M44.7972 92.7233C41.0325 92.7233 37.9481 91.8783 35.5438 90.1885C33.171 88.4686 31.9847 86.0246 31.9847 82.8562C31.9847 82.1923 32.0638 81.3775 32.2219 80.4119C32.6334 78.2395 33.2186 75.6293 33.9778 72.5817C36.129 64.2837 41.6812 60.1348 50.6341 60.1348C53.0701 60.1348 55.2529 60.527 57.1828 61.3114C59.1127 62.0657 60.6311 63.2125 61.7383 64.7515C62.8455 66.26 63.3993 68.0706 63.3993 70.1828C63.3993 70.8164 63.3202 71.6161 63.1619 72.5817C62.6874 75.2672 62.1179 77.8774 61.4535 80.4119C60.3463 84.5459 58.4323 87.6388 55.7116 89.6907C52.9909 91.7123 49.3529 92.7233 44.7972 92.7233V92.7233ZM45.4615 86.2055C47.2334 86.2055 48.7359 85.7076 49.9698 84.7119C51.2353 83.7161 52.1369 82.1923 52.6745 80.1405C53.4021 77.304 53.956 74.8296 54.3356 72.7175C54.4621 72.0838 54.5253 71.4352 54.5253 70.7711C54.5253 68.0253 53.0225 66.6523 50.0173 66.6523C48.2455 66.6523 46.7271 67.1501 45.4615 68.1459C44.2279 69.1419 43.342 70.6657 42.8043 72.7175C42.2348 74.7392 41.6652 77.2136 41.096 80.1405C40.9693 80.7438 40.906 81.3775 40.906 82.0413C40.906 84.8175 42.4247 86.2055 45.4615 86.2055ZM65.5781 92.2707C65.2301 92.2707 64.961 92.1651 64.7713 91.9538C64.613 91.7123 64.5657 91.4409 64.6289 91.1392L71.1776 61.7189C71.2408 61.3869 71.4148 61.1153 71.6996 60.904C71.9843 60.6927 72.2848 60.5873 72.6011 60.5873H85.224C88.7355 60.5873 91.5511 61.2813 93.6706 62.6693C95.8221 64.0575 96.8976 66.0639 96.8976 68.6891C96.8976 69.4434 96.8028 70.2281 96.6129 71.0427C95.8221 74.5129 94.2245 77.0778 91.8201 78.7374C89.4474 80.397 86.1888 81.2268 82.0445 81.2268H75.6382L73.4554 91.1392C73.392 91.4711 73.218 91.7425 72.9335 91.9538C72.6489 92.1651 72.348 92.2707 72.0319 92.2707H65.5781ZM82.3768 74.9806C83.7053 74.9806 84.86 74.6335 85.8408 73.9395C86.8532 73.2455 87.5175 72.2498 87.8339 70.9523C87.9287 70.4392 87.9763 69.9866 87.9763 69.5944C87.9763 68.7193 87.7075 68.0554 87.1695 67.6029C86.6316 67.12 85.7143 66.8788 84.4172 66.8788H78.7226L76.9194 74.9806H82.3768Z" fill="#FF0420"/>
</g>
<g filter="url(#filter0_dddddd_505_20)">
<ellipse cx="109" cy="23.1419" rx="25" ry="23.1419" fill="#BA2F2A"/>
<path d="M101.547 13.8585L104.98 17.0361H107.987C111.307 17.0361 111.219 17.0287 111.741 17.2777C112.54 17.6531 113.062 18.3778 113.134 19.2066C113.186 19.8049 112.901 20.4702 112.391 20.9422C112.062 21.2432 111.797 21.403 111.384 21.5405L111.123 21.626L104.619 21.6446L98.1185 21.6632L105.903 29.4009L113.692 37.1386H118.566L123.436 37.1423L123.284 36.9825C123.2 36.897 121.023 34.7378 118.45 32.1808C115.876 29.6276 113.777 27.5315 113.781 27.5241C113.785 27.5129 113.957 27.446 114.162 27.368C115.892 26.725 117.39 25.5878 118.446 24.1123C119.221 23.0345 119.715 21.8415 119.923 20.5445C120.02 19.935 120.02 18.7048 119.919 18.1139C119.594 16.1442 118.619 14.3974 117.093 13.0558C115.756 11.8813 114.142 11.1195 112.267 10.785L111.805 10.7032L104.96 10.6921L98.1144 10.6809L101.547 13.8585Z" fill="white"/>
<path d="M99.9452 32.6306C98.7286 32.9316 97.9417 34.0354 98.1304 35.1689C98.279 36.0572 98.8611 36.7113 99.7725 37.0197C100.134 37.1461 100.764 37.1758 101.162 37.0904C102.45 36.8079 103.29 35.5889 103.017 34.3922C102.824 33.5411 102.117 32.8424 101.226 32.6269C100.941 32.5562 100.23 32.56 99.9452 32.6306Z" fill="white"/>
</g>
<defs>
<filter id="filter0_dddddd_505_20" x="65" y="0" width="88" height="84.2837" filterUnits="userSpaceOnUse" color-interpolation-filters="sRGB">
<feFlood flood-opacity="0" result="BackgroundImageFix"/>
<feColorMatrix in="SourceAlpha" type="matrix" values="0 0 0 0 0 0 0 0 0 0 0 0 0 0 0 0 0 0 127 0" result="hardAlpha"/>
<feOffset dy="0.525779"/>
<feGaussianBlur stdDeviation="0.262889"/>
<feColorMatrix type="matrix" values="0 0 0 0 0 0 0 0 0 0 0 0 0 0 0 0 0 0 0.0196802 0"/>
<feBlend mode="normal" in2="BackgroundImageFix" result="effect1_dropShadow_505_20"/>
<feColorMatrix in="SourceAlpha" type="matrix" values="0 0 0 0 0 0 0 0 0 0 0 0 0 0 0 0 0 0 127 0" result="hardAlpha"/>
<feOffset dy="1.26352"/>
<feGaussianBlur stdDeviation="0.63176"/>
<feColorMatrix type="matrix" values="0 0 0 0 0 0 0 0 0 0 0 0 0 0 0 0 0 0 0.0282725 0"/>
<feBlend mode="normal" in2="effect1_dropShadow_505_20" result="effect2_dropShadow_505_20"/>
<feColorMatrix in="SourceAlpha" type="matrix" values="0 0 0 0 0 0 0 0 0 0 0 0 0 0 0 0 0 0 127 0" result="hardAlpha"/>
<feOffset dy="2.37909"/>
<feGaussianBlur stdDeviation="1.18955"/>
<feColorMatrix type="matrix" values="0 0 0 0 0 0 0 0 0 0 0 0 0 0 0 0 0 0 0.035 0"/>
<feBlend mode="normal" in2="effect2_dropShadow_505_20" result="effect3_dropShadow_505_20"/>
<feColorMatrix in="SourceAlpha" type="matrix" values="0 0 0 0 0 0 0 0 0 0 0 0 0 0 0 0 0 0 127 0" result="hardAlpha"/>
<feOffset dy="4.2439"/>
<feGaussianBlur stdDeviation="2.12195"/>
<feColorMatrix type="matrix" values="0 0 0 0 0 0 0 0 0 0 0 0 0 0 0 0 0 0 0.0417275 0"/>
<feBlend mode="normal" in2="effect3_dropShadow_505_20" result="effect4_dropShadow_505_20"/>
<feColorMatrix in="SourceAlpha" type="matrix" values="0 0 0 0 0 0 0 0 0 0 0 0 0 0 0 0 0 0 127 0" result="hardAlpha"/>
<feOffset dy="7.93775"/>
<feGaussianBlur stdDeviation="3.96887"/>
<feColorMatrix type="matrix" values="0 0 0 0 0 0 0 0 0 0 0 0 0 0 0 0 0 0 0.0503198 0"/>
<feBlend mode="normal" in2="effect4_dropShadow_505_20" result="effect5_dropShadow_505_20"/>
<feColorMatrix in="SourceAlpha" type="matrix" values="0 0 0 0 0 0 0 0 0 0 0 0 0 0 0 0 0 0 127 0" result="hardAlpha"/>
<feOffset dy="19"/>
<feGaussianBlur stdDeviation="9.5"/>
<feColorMatrix type="matrix" values="0 0 0 0 0 0 0 0 0 0 0 0 0 0 0 0 0 0 0.07 0"/>
<feBlend mode="normal" in2="effect5_dropShadow_505_20" result="effect6_dropShadow_505_20"/>
<feBlend mode="normal" in="SourceGraphic" in2="effect6_dropShadow_505_20" result="shape"/>
</filter>
<clipPath id="clip0_505_20">
<rect width="126.451" height="120.61" fill="white" transform="translate(0 16.3904)"/>
</clipPath>
</defs>
</svg>
