<svg width="153" height="137" viewBox="0 0 153 137" fill="none" xmlns="http://www.w3.org/2000/svg">
<circle cx="63" cy="74" r="63" fill="white"/>
<path fill-rule="evenodd" clip-rule="evenodd" d="M70.9198 61.5771V51.9802H92.7515V37.3455H33.3091V51.9802H55.1408V61.5731C37.398 62.3924 24.0546 65.9294 24.0546 70.1641C24.0546 74.3987 37.398 77.9317 55.1408 78.7551V109.509H70.9198V78.747C88.6343 77.9276 101.945 74.3947 101.945 70.1641C101.945 65.9335 88.6343 62.4005 70.9198 61.5771ZM70.9198 76.1388V76.1307C70.4762 76.1632 68.1898 76.3011 63.0887 76.3011C59.016 76.3011 56.1489 76.1794 55.1408 76.1307V76.1429C39.4626 75.4493 27.7604 72.7032 27.7604 69.4177C27.7604 66.1363 39.4626 63.3902 55.1408 62.6845V73.409C56.165 73.482 59.1006 73.6564 63.1573 73.6564C68.0245 73.6564 70.4641 73.4536 70.9198 73.4131V62.6926C86.5657 63.3943 98.2397 66.1403 98.2397 69.4177C98.2397 72.7032 86.5657 75.4412 70.9198 76.1388Z" fill="#27A17C"/>
<g filter="url(#filter0_dddddd_101_247)">
<circle cx="109" cy="25" r="25" fill="#BA2F2A"/>
<path d="M101.547 14.9712L104.98 18.4039H107.987C111.307 18.4039 111.219 18.3959 111.741 18.6649C112.54 19.0704 113.062 19.8533 113.134 20.7486C113.186 21.395 112.901 22.1137 112.391 22.6236C112.062 22.9488 111.797 23.1214 111.384 23.27L111.123 23.3623L104.619 23.3824L98.1185 23.4025L105.903 31.7615L113.692 40.1205H118.566L123.436 40.1245L123.284 39.9519C123.2 39.8595 121.023 37.5269 118.45 34.7646C115.876 32.0064 113.777 29.742 113.781 29.734C113.785 29.7219 113.957 29.6497 114.162 29.5653C115.892 28.8708 117.39 27.6422 118.446 26.0483C119.221 24.884 119.715 23.5952 119.923 22.194C120.02 21.5355 120.02 20.2066 119.919 19.5683C119.594 17.4404 118.619 15.5534 117.093 14.104C115.756 12.8353 114.142 12.0122 112.267 11.6509L111.805 11.5625L104.96 11.5505L98.1144 11.5385L101.547 14.9712Z" fill="white"/>
<path d="M99.9452 35.2505C98.7286 35.5757 97.9417 36.7681 98.1304 37.9927C98.279 38.9523 98.8611 39.6589 99.7725 39.9921C100.134 40.1286 100.764 40.1607 101.162 40.0684C102.45 39.7633 103.29 38.4464 103.017 37.1536C102.824 36.2342 102.117 35.4794 101.226 35.2465C100.941 35.1702 100.23 35.1742 99.9452 35.2505Z" fill="white"/>
</g>
<defs>
<filter id="filter0_dddddd_101_247" x="65" y="0" width="88" height="88" filterUnits="userSpaceOnUse" color-interpolation-filters="sRGB">
<feFlood flood-opacity="0" result="BackgroundImageFix"/>
<feColorMatrix in="SourceAlpha" type="matrix" values="0 0 0 0 0 0 0 0 0 0 0 0 0 0 0 0 0 0 127 0" result="hardAlpha"/>
<feOffset dy="0.525779"/>
<feGaussianBlur stdDeviation="0.262889"/>
<feColorMatrix type="matrix" values="0 0 0 0 0 0 0 0 0 0 0 0 0 0 0 0 0 0 0.0196802 0"/>
<feBlend mode="normal" in2="BackgroundImageFix" result="effect1_dropShadow_101_247"/>
<feColorMatrix in="SourceAlpha" type="matrix" values="0 0 0 0 0 0 0 0 0 0 0 0 0 0 0 0 0 0 127 0" result="hardAlpha"/>
<feOffset dy="1.26352"/>
<feGaussianBlur stdDeviation="0.63176"/>
<feColorMatrix type="matrix" values="0 0 0 0 0 0 0 0 0 0 0 0 0 0 0 0 0 0 0.0282725 0"/>
<feBlend mode="normal" in2="effect1_dropShadow_101_247" result="effect2_dropShadow_101_247"/>
<feColorMatrix in="SourceAlpha" type="matrix" values="0 0 0 0 0 0 0 0 0 0 0 0 0 0 0 0 0 0 127 0" result="hardAlpha"/>
<feOffset dy="2.37909"/>
<feGaussianBlur stdDeviation="1.18955"/>
<feColorMatrix type="matrix" values="0 0 0 0 0 0 0 0 0 0 0 0 0 0 0 0 0 0 0.035 0"/>
<feBlend mode="normal" in2="effect2_dropShadow_101_247" result="effect3_dropShadow_101_247"/>
<feColorMatrix in="SourceAlpha" type="matrix" values="0 0 0 0 0 0 0 0 0 0 0 0 0 0 0 0 0 0 127 0" result="hardAlpha"/>
<feOffset dy="4.2439"/>
<feGaussianBlur stdDeviation="2.12195"/>
<feColorMatrix type="matrix" values="0 0 0 0 0 0 0 0 0 0 0 0 0 0 0 0 0 0 0.0417275 0"/>
<feBlend mode="normal" in2="effect3_dropShadow_101_247" result="effect4_dropShadow_101_247"/>
<feColorMatrix in="SourceAlpha" type="matrix" values="0 0 0 0 0 0 0 0 0 0 0 0 0 0 0 0 0 0 127 0" result="hardAlpha"/>
<feOffset dy="7.93775"/>
<feGaussianBlur stdDeviation="3.96887"/>
<feColorMatrix type="matrix" values="0 0 0 0 0 0 0 0 0 0 0 0 0 0 0 0 0 0 0.0503198 0"/>
<feBlend mode="normal" in2="effect4_dropShadow_101_247" result="effect5_dropShadow_101_247"/>
<feColorMatrix in="SourceAlpha" type="matrix" values="0 0 0 0 0 0 0 0 0 0 0 0 0 0 0 0 0 0 127 0" result="hardAlpha"/>
<feOffset dy="19"/>
<feGaussianBlur stdDeviation="9.5"/>
<feColorMatrix type="matrix" values="0 0 0 0 0 0 0 0 0 0 0 0 0 0 0 0 0 0 0.07 0"/>
<feBlend mode="normal" in2="effect5_dropShadow_101_247" result="effect6_dropShadow_101_247"/>
<feBlend mode="normal" in="SourceGraphic" in2="effect6_dropShadow_101_247" result="shape"/>
</filter>
</defs>
</svg>
