<svg width="153" height="137" viewBox="0 0 153 137" fill="none" xmlns="http://www.w3.org/2000/svg">
<circle cx="63" cy="74" r="63" fill="white"/>
<path d="M97.1441 48.8013H81.9423C78.0557 48.8013 74.7203 50.4364 71.9359 53.6848L55.7226 74.3757L45.2811 87.6813C45.0661 87.9486 44.7948 88.1652 44.4864 88.3156C44.1781 88.4661 43.8403 88.5465 43.4973 88.5513L29.0678 88.5514C29.014 88.5449 28.9593 88.5529 28.9096 88.5746C28.8599 88.5963 28.8169 88.6308 28.785 88.6747C28.7242 88.7548 28.6922 88.8532 28.6944 88.9538V99.214C28.704 99.2935 28.7354 99.3688 28.785 99.4316C28.8183 99.4739 28.8616 99.5072 28.9109 99.5287C28.9603 99.5502 29.0141 99.5592 29.0678 99.5548H44.2841C48.1706 99.5548 51.5061 97.9089 54.2905 94.6278L63.1368 83.3597L71.983 94.6278C74.7493 97.9089 78.0557 99.5585 81.9423 99.5585H97.1332C97.1868 99.5639 97.2409 99.555 97.2899 99.5327C97.339 99.5104 97.3812 99.4755 97.4124 99.4316C97.4732 99.3514 97.5051 99.253 97.503 99.1524V89.001C97.5102 88.8851 97.4782 88.7702 97.4124 88.6747C97.379 88.6324 97.3358 88.599 97.2865 88.5775C97.2371 88.556 97.1832 88.547 97.1296 88.5514H82.7C82.3704 88.5531 82.0446 88.4814 81.7461 88.3415C81.4476 88.2017 81.184 87.9972 80.9743 87.7429L70.2971 74.14L80.9308 60.635C81.1415 60.362 81.4124 60.1414 81.7225 59.9904C82.0326 59.8395 82.3733 59.7623 82.7181 59.7648H97.1477C97.2013 59.7703 97.2554 59.7614 97.3044 59.7391C97.3535 59.7168 97.3957 59.6819 97.4269 59.6379C97.4877 59.5578 97.5197 59.4594 97.5175 59.3588V49.0913C97.5088 49.0192 97.477 48.9518 97.4269 48.8992C97.3888 48.8647 97.3441 48.8385 97.2954 48.8223C97.2467 48.806 97.1952 48.8001 97.1441 48.8049V48.8013ZM44.3167 48.8013H29.0678C29.0095 48.7965 28.9509 48.8056 28.8968 48.8276C28.8426 48.8496 28.7944 48.8841 28.756 48.9282C28.6809 49.0018 28.6379 49.1021 28.6364 49.2073V59.3588C28.6364 59.4675 28.6799 59.5618 28.756 59.6379C28.8413 59.7159 28.9523 59.7597 29.0678 59.7612H43.4973C44.1971 59.7612 44.8533 60.073 45.2847 60.6313L50.7629 67.6431L57.9849 58.456L54.276 53.732C51.4771 50.4509 48.1561 48.8013 44.3167 48.8013Z" fill="#03B7EA"/>
<g filter="url(#filter0_dddddd_101_224)">
<circle cx="109" cy="25" r="25" fill="#BA2F2A"/>
<path d="M101.547 14.9712L104.98 18.4039H107.987C111.307 18.4039 111.219 18.3959 111.741 18.6649C112.54 19.0704 113.062 19.8533 113.134 20.7486C113.186 21.395 112.901 22.1137 112.391 22.6236C112.062 22.9488 111.797 23.1214 111.384 23.27L111.123 23.3623L104.619 23.3824L98.1185 23.4025L105.903 31.7615L113.692 40.1205H118.566L123.436 40.1245L123.284 39.9519C123.2 39.8595 121.023 37.5269 118.45 34.7646C115.876 32.0064 113.777 29.742 113.781 29.734C113.785 29.7219 113.957 29.6497 114.162 29.5653C115.892 28.8708 117.39 27.6422 118.446 26.0483C119.221 24.884 119.715 23.5952 119.923 22.194C120.02 21.5355 120.02 20.2066 119.919 19.5683C119.594 17.4404 118.619 15.5534 117.093 14.104C115.756 12.8353 114.142 12.0122 112.267 11.6509L111.805 11.5625L104.96 11.5505L98.1144 11.5385L101.547 14.9712Z" fill="white"/>
<path d="M99.9452 35.2505C98.7286 35.5757 97.9417 36.7681 98.1304 37.9927C98.279 38.9523 98.8611 39.6589 99.7725 39.9921C100.134 40.1286 100.764 40.1607 101.162 40.0684C102.45 39.7633 103.29 38.4464 103.017 37.1536C102.824 36.2342 102.117 35.4794 101.226 35.2465C100.941 35.1702 100.23 35.1742 99.9452 35.2505Z" fill="white"/>
</g>
<defs>
<filter id="filter0_dddddd_101_224" x="65" y="0" width="88" height="88" filterUnits="userSpaceOnUse" color-interpolation-filters="sRGB">
<feFlood flood-opacity="0" result="BackgroundImageFix"/>
<feColorMatrix in="SourceAlpha" type="matrix" values="0 0 0 0 0 0 0 0 0 0 0 0 0 0 0 0 0 0 127 0" result="hardAlpha"/>
<feOffset dy="0.525779"/>
<feGaussianBlur stdDeviation="0.262889"/>
<feColorMatrix type="matrix" values="0 0 0 0 0 0 0 0 0 0 0 0 0 0 0 0 0 0 0.0196802 0"/>
<feBlend mode="normal" in2="BackgroundImageFix" result="effect1_dropShadow_101_224"/>
<feColorMatrix in="SourceAlpha" type="matrix" values="0 0 0 0 0 0 0 0 0 0 0 0 0 0 0 0 0 0 127 0" result="hardAlpha"/>
<feOffset dy="1.26352"/>
<feGaussianBlur stdDeviation="0.63176"/>
<feColorMatrix type="matrix" values="0 0 0 0 0 0 0 0 0 0 0 0 0 0 0 0 0 0 0.0282725 0"/>
<feBlend mode="normal" in2="effect1_dropShadow_101_224" result="effect2_dropShadow_101_224"/>
<feColorMatrix in="SourceAlpha" type="matrix" values="0 0 0 0 0 0 0 0 0 0 0 0 0 0 0 0 0 0 127 0" result="hardAlpha"/>
<feOffset dy="2.37909"/>
<feGaussianBlur stdDeviation="1.18955"/>
<feColorMatrix type="matrix" values="0 0 0 0 0 0 0 0 0 0 0 0 0 0 0 0 0 0 0.035 0"/>
<feBlend mode="normal" in2="effect2_dropShadow_101_224" result="effect3_dropShadow_101_224"/>
<feColorMatrix in="SourceAlpha" type="matrix" values="0 0 0 0 0 0 0 0 0 0 0 0 0 0 0 0 0 0 127 0" result="hardAlpha"/>
<feOffset dy="4.2439"/>
<feGaussianBlur stdDeviation="2.12195"/>
<feColorMatrix type="matrix" values="0 0 0 0 0 0 0 0 0 0 0 0 0 0 0 0 0 0 0.0417275 0"/>
<feBlend mode="normal" in2="effect3_dropShadow_101_224" result="effect4_dropShadow_101_224"/>
<feColorMatrix in="SourceAlpha" type="matrix" values="0 0 0 0 0 0 0 0 0 0 0 0 0 0 0 0 0 0 127 0" result="hardAlpha"/>
<feOffset dy="7.93775"/>
<feGaussianBlur stdDeviation="3.96887"/>
<feColorMatrix type="matrix" values="0 0 0 0 0 0 0 0 0 0 0 0 0 0 0 0 0 0 0.0503198 0"/>
<feBlend mode="normal" in2="effect4_dropShadow_101_224" result="effect5_dropShadow_101_224"/>
<feColorMatrix in="SourceAlpha" type="matrix" values="0 0 0 0 0 0 0 0 0 0 0 0 0 0 0 0 0 0 127 0" result="hardAlpha"/>
<feOffset dy="19"/>
<feGaussianBlur stdDeviation="9.5"/>
<feColorMatrix type="matrix" values="0 0 0 0 0 0 0 0 0 0 0 0 0 0 0 0 0 0 0.07 0"/>
<feBlend mode="normal" in2="effect5_dropShadow_101_224" result="effect6_dropShadow_101_224"/>
<feBlend mode="normal" in="SourceGraphic" in2="effect6_dropShadow_101_224" result="shape"/>
</filter>
</defs>
</svg>
