<?xml version="1.0" standalone="no"?>
<!DOCTYPE svg PUBLIC "-//W3C//DTD SVG 20010904//EN"
 "http://www.w3.org/TR/2001/REC-SVG-20010904/DTD/svg10.dtd">
<svg version="1.0" xmlns="http://www.w3.org/2000/svg"
 width="2902.000000pt" height="714.000000pt" viewBox="0 0 2902.000000 714.000000"
 preserveAspectRatio="xMidYMid meet">
<metadata>
Created by potrace 1.16, written by Peter Selinger 2001-2019
</metadata>
<g transform="translate(0.000000,714.000000) scale(0.100000,-0.100000)"
fill="#000000" stroke="none">
<path d="M0 7132 c0 -4 384 -391 853 -859 l852 -852 760 -3 760 -3 70 -23
c195 -65 357 -225 416 -412 29 -91 35 -217 15 -305 -53 -226 -236 -413 -461
-470 -52 -13 -263 -15 -1663 -15 -1405 0 -1603 -2 -1599 -15 4 -8 878 -950
1944 -2094 l1938 -2080 1218 0 c669 -1 1217 2 1217 7 0 4 -541 588 -1203 1297
l-1203 1290 81 33 c377 152 715 408 977 737 186 235 347 562 423 864 151 599
60 1230 -253 1758 -373 629 -1011 1048 -1732 1138 -108 13 -347 15 -1767 15
-904 0 -1643 -3 -1643 -8z"/>
<path d="M14110 4570 l0 -2570 353 0 353 0 23 112 c13 62 27 119 31 126 5 10
20 3 56 -29 142 -123 338 -213 559 -256 110 -21 409 -24 530 -4 378 59 680
220 950 503 306 322 450 733 432 1237 -14 409 -132 730 -374 1020 -236 283
-554 474 -918 551 -128 27 -419 38 -550 21 -238 -32 -448 -118 -615 -253 l-60
-49 0 1081 0 1080 -385 0 -385 0 0 -2570z m1870 -25 c94 -25 236 -95 305 -151
144 -119 259 -317 305 -529 20 -89 28 -253 19 -363 -23 -264 -117 -471 -286
-633 -125 -120 -271 -185 -467 -209 -417 -53 -771 147 -946 533 -52 114 -71
208 -77 370 -8 217 17 349 98 511 132 265 353 435 639 490 58 11 346 -2 410
-19z"/>
<path d="M18143 6466 c-104 -34 -194 -114 -241 -214 -24 -50 -27 -69 -27 -162
0 -99 2 -110 32 -171 39 -80 111 -150 191 -187 50 -24 69 -27 162 -27 94 0
111 3 166 28 74 34 152 111 191 187 26 50 28 64 28 165 0 100 -3 116 -29 172
-35 77 -113 154 -193 191 -70 32 -210 41 -280 18z"/>
<path d="M9635 5274 c-178 -40 -325 -123 -467 -265 -49 -48 -88 -86 -88 -85 0
2 -13 70 -30 151 -16 81 -30 150 -30 152 0 1 -160 3 -355 3 l-355 0 0 -1615 0
-1615 395 0 395 0 0 968 c0 1080 -4 1017 72 1172 69 142 222 278 371 330 90
32 176 40 435 40 l242 0 0 349 0 349 -47 20 c-106 45 -155 54 -313 58 -116 3
-173 0 -225 -12z"/>
<path d="M20519 5275 c-268 -44 -500 -139 -708 -293 -346 -254 -563 -585 -651
-997 -31 -143 -39 -483 -16 -643 56 -383 207 -677 484 -943 135 -131 263 -222
417 -299 199 -99 354 -141 588 -162 314 -27 625 32 888 168 254 132 490 359
641 613 40 68 47 86 36 96 -19 17 -593 383 -607 387 -6 2 -24 -27 -40 -64 -92
-215 -309 -398 -551 -464 -98 -27 -325 -25 -445 4 -311 77 -536 312 -627 659
-20 78 -23 111 -22 278 0 174 3 199 27 289 88 327 305 557 602 638 67 18 108
22 250 22 151 1 178 -2 245 -22 212 -67 407 -230 497 -417 18 -38 33 -75 33
-83 0 -7 6 -15 13 -18 15 -5 627 383 627 397 0 5 -20 42 -44 83 -159 268 -399
497 -664 630 -92 47 -253 101 -370 127 -128 27 -473 36 -603 14z"/>
<path d="M23840 5283 c-374 -56 -642 -172 -891 -384 -374 -319 -561 -705 -585
-1204 -27 -562 185 -1045 610 -1390 272 -220 566 -337 924 -367 484 -41 941
114 1292 436 269 247 431 533 501 883 40 204 37 524 -7 743 -133 652 -705
1178 -1387 1275 -92 13 -390 19 -457 8z m470 -741 c206 -57 360 -172 473 -353
214 -344 204 -855 -23 -1190 -164 -241 -435 -362 -770 -345 -343 17 -587 170
-730 456 -84 166 -115 329 -107 554 6 183 34 305 102 441 107 216 271 361 482
425 114 34 158 39 333 36 128 -3 182 -9 240 -24z"/>
<path d="M27500 5271 c-198 -44 -365 -124 -487 -235 -28 -25 -53 -43 -56 -39
-2 5 -17 59 -32 121 l-27 112 -354 0 -354 0 0 -1615 0 -1615 395 0 395 0 0
998 c0 1094 -2 1058 61 1189 58 121 180 249 299 312 179 95 452 95 631 0 73
-39 158 -128 194 -204 14 -31 36 -91 48 -133 22 -77 22 -83 25 -1120 l3 -1042
389 0 390 0 0 1073 c0 1161 0 1150 -55 1342 -93 322 -324 603 -609 740 -195
94 -333 125 -586 131 -156 3 -198 1 -270 -15z"/>
<path d="M10613 4113 c3 -1097 3 -1120 24 -1203 115 -465 399 -782 818 -913
172 -54 430 -79 588 -58 209 28 433 124 556 237 l70 65 11 -43 c6 -24 15 -59
20 -78 5 -19 14 -54 20 -77 l11 -43 354 0 355 0 0 1615 0 1615 -395 0 -395 0
-2 -1027 -3 -1028 -27 -73 c-48 -132 -146 -255 -271 -341 -116 -79 -263 -118
-412 -108 -169 12 -283 55 -374 142 -69 65 -113 143 -144 252 -22 78 -22 80
-25 1131 l-3 1052 -390 0 -390 0 4 -1117z"/>
<path d="M17880 3615 l0 -1615 385 0 385 0 0 1615 0 1615 -385 0 -385 0 0
-1615z"/>
<path d="M468 1235 c-132 -33 -266 -122 -345 -228 -96 -130 -127 -235 -121
-412 4 -102 9 -130 33 -190 74 -183 201 -306 387 -373 63 -22 89 -26 193 -27
97 0 133 4 190 22 262 83 436 316 438 588 1 120 -13 184 -63 290 -68 142 -198
258 -350 312 -93 33 -269 42 -362 18z"/>
</g>
</svg>
